<mxfile host="app.diagrams.net" agent="Mozilla/5.0 (Windows NT 10.0; Win64; x64; rv:136.0) Gecko/20100101 Firefox/136.0" version="26.1.1">
  <diagram name="Page-1" id="lL4mRAmudEij022XY3C1">
    <mxGraphModel dx="1783" dy="1232" grid="0" gridSize="10" guides="1" tooltips="1" connect="1" arrows="1" fold="1" page="0" pageScale="1" pageWidth="827" pageHeight="1169" math="0" shadow="0">
      <root>
        <mxCell id="0" />
        <mxCell id="1" parent="0" />
        <mxCell id="Ew7g_TWH-UkbsDViZ6tO-30" value="Model: Documents internes" style="rounded=1;whiteSpace=wrap;html=1;strokeColor=#00AA9B;strokeWidth=3;arcSize=5;fontFamily=Poppins;fontSource=https%3A%2F%2Ffonts.googleapis.com%2Fcss%3Ffamily%3DPoppins;fontSize=16;fontColor=#002058;fontStyle=0;labelBackgroundColor=none;labelBorderColor=none;verticalAlign=top;align=left;spacingRight=0;spacingLeft=10;spacingTop=2;" vertex="1" parent="1">
          <mxGeometry x="-295" y="-236" width="1048" height="261" as="geometry" />
        </mxCell>
        <mxCell id="Ew7g_TWH-UkbsDViZ6tO-3" value="Custom type : Contrat" style="rounded=1;whiteSpace=wrap;html=1;strokeColor=#042a60;strokeWidth=3;arcSize=19;fontFamily=Poppins;fontSource=https%3A%2F%2Ffonts.googleapis.com%2Fcss%3Ffamily%3DPoppins;fontSize=16;fontColor=#002058;fontStyle=0;labelBackgroundColor=none;labelBorderColor=none;" vertex="1" parent="1">
          <mxGeometry x="-290" y="-79" width="280" height="60" as="geometry" />
        </mxCell>
        <mxCell id="Ew7g_TWH-UkbsDViZ6tO-4" value="&lt;div&gt;Aspect: Versionable&lt;/div&gt;" style="rounded=1;whiteSpace=wrap;html=1;strokeColor=#F04641;strokeWidth=3;arcSize=19;fontFamily=Poppins;fontSource=https%3A%2F%2Ffonts.googleapis.com%2Fcss%3Ffamily%3DPoppins;fontSize=16;fontColor=#002058;fontStyle=0;labelBackgroundColor=none;labelBorderColor=none;" vertex="1" parent="1">
          <mxGeometry x="301" y="-185" width="204" height="42" as="geometry" />
        </mxCell>
        <mxCell id="Ew7g_TWH-UkbsDViZ6tO-5" value="&lt;div&gt;Aspect: Emailed&lt;/div&gt;" style="rounded=1;whiteSpace=wrap;html=1;strokeColor=#F04641;strokeWidth=3;arcSize=19;fontFamily=Poppins;fontSource=https%3A%2F%2Ffonts.googleapis.com%2Fcss%3Ffamily%3DPoppins;fontSize=16;fontColor=#002058;fontStyle=0;labelBackgroundColor=none;labelBorderColor=none;" vertex="1" parent="1">
          <mxGeometry x="301" y="-76" width="213" height="44" as="geometry" />
        </mxCell>
        <mxCell id="Ew7g_TWH-UkbsDViZ6tO-11" value="Custom type : Facture" style="rounded=1;whiteSpace=wrap;html=1;strokeColor=#042a60;strokeWidth=3;arcSize=19;fontFamily=Poppins;fontSource=https%3A%2F%2Ffonts.googleapis.com%2Fcss%3Ffamily%3DPoppins;fontSize=16;fontColor=#002058;fontStyle=0;labelBackgroundColor=none;labelBorderColor=none;" vertex="1" parent="1">
          <mxGeometry x="-292" y="-189" width="280" height="60" as="geometry" />
        </mxCell>
        <mxCell id="Ew7g_TWH-UkbsDViZ6tO-32" style="edgeStyle=none;curved=1;rounded=0;orthogonalLoop=1;jettySize=auto;html=1;entryX=0.5;entryY=1;entryDx=0;entryDy=0;fontSize=12;startSize=8;endSize=8;" edge="1" parent="1" source="Ew7g_TWH-UkbsDViZ6tO-19" target="Ew7g_TWH-UkbsDViZ6tO-3">
          <mxGeometry relative="1" as="geometry" />
        </mxCell>
        <mxCell id="Ew7g_TWH-UkbsDViZ6tO-34" style="edgeStyle=none;curved=1;rounded=0;orthogonalLoop=1;jettySize=auto;html=1;entryX=0;entryY=1;entryDx=0;entryDy=0;fontSize=12;startSize=8;endSize=8;" edge="1" parent="1" source="Ew7g_TWH-UkbsDViZ6tO-19" target="Ew7g_TWH-UkbsDViZ6tO-4">
          <mxGeometry relative="1" as="geometry" />
        </mxCell>
        <mxCell id="Ew7g_TWH-UkbsDViZ6tO-35" style="edgeStyle=none;curved=1;rounded=0;orthogonalLoop=1;jettySize=auto;html=1;entryX=0.5;entryY=1;entryDx=0;entryDy=0;fontSize=12;startSize=8;endSize=8;" edge="1" parent="1" source="Ew7g_TWH-UkbsDViZ6tO-19" target="Ew7g_TWH-UkbsDViZ6tO-5">
          <mxGeometry relative="1" as="geometry" />
        </mxCell>
        <mxCell id="Ew7g_TWH-UkbsDViZ6tO-19" value="Document " style="ellipse;whiteSpace=wrap;html=1;aspect=fixed;fillColor=#FFFFFF;strokeColor=#AB667B;fontColor=#002058;fontFamily=Poppins;fontSource=https%3A%2F%2Ffonts.googleapis.com%2Fcss%3Ffamily%3DPoppins;fontSize=16;strokeWidth=3;fontStyle=0" vertex="1" parent="1">
          <mxGeometry x="186" y="55" width="101" height="101" as="geometry" />
        </mxCell>
        <mxCell id="Ew7g_TWH-UkbsDViZ6tO-20" value="Proprerty: Numero contrat" style="rounded=1;whiteSpace=wrap;html=1;strokeColor=#FAB631;strokeWidth=3;arcSize=19;fontFamily=Poppins;fontSource=https%3A%2F%2Ffonts.googleapis.com%2Fcss%3Ffamily%3DPoppins;fontSize=16;fontColor=#002058;fontStyle=0;labelBackgroundColor=none;labelBorderColor=none;" vertex="1" parent="1">
          <mxGeometry x="-7" y="-72" width="220" height="21" as="geometry" />
        </mxCell>
        <mxCell id="Ew7g_TWH-UkbsDViZ6tO-22" value="Proprerty: Contrat signÃ©" style="rounded=1;whiteSpace=wrap;html=1;strokeColor=#FAB631;strokeWidth=3;arcSize=19;fontFamily=Poppins;fontSource=https%3A%2F%2Ffonts.googleapis.com%2Fcss%3Ffamily%3DPoppins;fontSize=16;fontColor=#002058;fontStyle=0;labelBackgroundColor=none;labelBorderColor=none;" vertex="1" parent="1">
          <mxGeometry x="-7" y="-48" width="220" height="21" as="geometry" />
        </mxCell>
        <mxCell id="Ew7g_TWH-UkbsDViZ6tO-23" value="Proprerty: Numero facture" style="rounded=1;whiteSpace=wrap;html=1;strokeColor=#FAB631;strokeWidth=3;arcSize=19;fontFamily=Poppins;fontSource=https%3A%2F%2Ffonts.googleapis.com%2Fcss%3Ffamily%3DPoppins;fontSize=16;fontColor=#002058;fontStyle=0;labelBackgroundColor=none;labelBorderColor=none;" vertex="1" parent="1">
          <mxGeometry x="-10" y="-185" width="220" height="21" as="geometry" />
        </mxCell>
        <mxCell id="Ew7g_TWH-UkbsDViZ6tO-25" value="Proprerty: Fournisseur" style="rounded=1;whiteSpace=wrap;html=1;strokeColor=#FAB631;strokeWidth=3;arcSize=19;fontFamily=Poppins;fontSource=https%3A%2F%2Ffonts.googleapis.com%2Fcss%3Ffamily%3DPoppins;fontSize=16;fontColor=#002058;fontStyle=0;labelBackgroundColor=none;labelBorderColor=none;" vertex="1" parent="1">
          <mxGeometry x="-10" y="-159" width="220" height="21" as="geometry" />
        </mxCell>
        <mxCell id="Ew7g_TWH-UkbsDViZ6tO-26" value="Proprerty: Version number" style="rounded=1;whiteSpace=wrap;html=1;strokeColor=#FAB631;strokeWidth=3;arcSize=19;fontFamily=Poppins;fontSource=https%3A%2F%2Ffonts.googleapis.com%2Fcss%3Ffamily%3DPoppins;fontSize=16;fontColor=#002058;fontStyle=0;labelBackgroundColor=none;labelBorderColor=none;" vertex="1" parent="1">
          <mxGeometry x="507" y="-174.5" width="220" height="21" as="geometry" />
        </mxCell>
        <mxCell id="Ew7g_TWH-UkbsDViZ6tO-27" value="Proprerty: To" style="rounded=1;whiteSpace=wrap;html=1;strokeColor=#FAB631;strokeWidth=3;arcSize=19;fontFamily=Poppins;fontSource=https%3A%2F%2Ffonts.googleapis.com%2Fcss%3Ffamily%3DPoppins;fontSize=16;fontColor=#002058;fontStyle=0;labelBackgroundColor=none;labelBorderColor=none;" vertex="1" parent="1">
          <mxGeometry x="517" y="-53" width="220" height="21" as="geometry" />
        </mxCell>
        <mxCell id="Ew7g_TWH-UkbsDViZ6tO-28" style="edgeStyle=none;curved=1;rounded=0;orthogonalLoop=1;jettySize=auto;html=1;exitX=0.5;exitY=1;exitDx=0;exitDy=0;fontSize=12;startSize=8;endSize=8;" edge="1" parent="1" source="Ew7g_TWH-UkbsDViZ6tO-27" target="Ew7g_TWH-UkbsDViZ6tO-27">
          <mxGeometry relative="1" as="geometry" />
        </mxCell>
        <mxCell id="Ew7g_TWH-UkbsDViZ6tO-29" value="Proprerty: From" style="rounded=1;whiteSpace=wrap;html=1;strokeColor=#FAB631;strokeWidth=3;arcSize=19;fontFamily=Poppins;fontSource=https%3A%2F%2Ffonts.googleapis.com%2Fcss%3Ffamily%3DPoppins;fontSize=16;fontColor=#002058;fontStyle=0;labelBackgroundColor=none;labelBorderColor=none;" vertex="1" parent="1">
          <mxGeometry x="517" y="-76" width="220" height="21" as="geometry" />
        </mxCell>
      </root>
    </mxGraphModel>
  </diagram>
</mxfile>
